<svg width="96" height="96" viewBox="0 0 96 96" fill="none" xmlns="http://www.w3.org/2000/svg">
<rect width="96" height="96" rx="12" fill="#0C0930"/>
<path d="M45.357 33.4986C52.7895 40.1793 60.1623 46.8169 67.5474 53.4407C69.5074 55.1986 71.6272 56.7113 74.2802 57.2385C77.4126 57.8609 80.2785 57.2802 82.797 55.2441C83.0356 55.0512 83.2829 54.8673 83.5397 54.7001C83.6123 54.6528 83.7332 54.6796 83.9245 54.6657C84.2166 55.5661 84.147 56.4807 83.9756 57.3703C82.9934 62.4677 79.235 65.7772 73.9797 66.4154C69.0958 67.0086 65.0079 65.256 61.3023 62.344C57.0611 59.0111 53.2053 55.233 49.1811 51.6495C44.7203 47.6772 40.3037 43.6552 35.8268 39.7013C32.9173 37.1318 29.5361 36.1612 25.6942 37.0239C25.5292 37.0609 25.356 37.0811 25.1878 37.0755C25.0951 37.0724 25.0048 36.999 24.9078 36.9548C24.7112 36.3194 25.1456 35.9021 25.4348 35.4626C29.5425 29.2211 37.0641 27.7133 43.2534 31.8929C43.9631 32.3721 44.6202 32.9293 45.357 33.4986Z" fill="url(#paint0_linear_697_19)"/>
<path d="M40.3945 50.0043C43.7351 52.9171 46.8256 56.002 50.2322 58.7288C51.8316 60.009 53.5983 60.8479 55.7269 60.6113C55.9671 60.5846 56.2366 60.5766 56.3679 60.8265C56.5617 61.1955 56.3077 61.4993 56.1246 61.7686C54.8301 63.6729 53.0895 65.0467 50.9311 65.8155C46.1389 67.5226 42.0031 66.0929 38.373 62.8946C33.556 58.6506 28.8269 54.3068 24.0532 50.0135C23.3385 49.3708 22.5718 48.7931 21.7579 48.273C19.9575 47.1224 18.0429 46.7208 15.9553 47.2816C15.6026 47.3764 15.2401 47.5826 14.8985 47.2652C14.759 46.9639 14.8996 46.7134 15.0364 46.4804C17.3962 42.4642 20.6242 39.7982 25.545 39.9265C28.0501 39.9918 30.1733 41.1405 32.087 42.6543C34.9704 44.9353 37.572 47.5406 40.3945 50.0043Z" fill="url(#paint1_linear_697_19)"/>
<path d="M77.9255 52.9594C75.2672 53.1768 73.1325 52.142 71.2824 50.5058C66.8871 46.6188 62.5436 42.6732 58.1716 38.7596C57.1227 37.8206 56.0362 36.9239 54.8071 36.2224C53.7112 35.5968 52.5387 35.2606 51.2652 35.3551C50.9011 35.3821 50.4624 35.5883 50.2533 35.1416C50.0622 34.7331 50.4364 34.4443 50.6529 34.1509C54.321 29.1796 60.6658 28.1028 66.0323 31.5273C68.5679 33.1454 70.6768 35.2763 72.8859 37.2771C75.2477 39.4164 77.7728 41.3899 79.8353 43.8478C80.4114 44.5344 80.8971 45.273 81.2607 46.0989C82.667 49.2929 81.3742 52.03 77.9255 52.9594Z" fill="url(#paint2_linear_697_19)"/>
<path d="M14.8167 62.8068C12.9074 60.7054 11.735 58.3955 11.8197 55.5335C11.9288 51.8478 15.5309 49.8029 18.6864 51.6781C19.4285 52.1191 20.0606 52.6986 20.6978 53.2719C24.3156 56.527 27.927 59.7892 31.5584 63.0291C32.2221 63.6213 31.9947 63.9632 31.3776 64.3595C26.0857 67.7575 19.4782 67.1619 14.8167 62.8068Z" fill="url(#paint3_linear_697_19)"/>
<defs>
<linearGradient id="paint0_linear_697_19" x1="47.9697" y1="29.5386" x2="47.9697" y2="66.5463" gradientUnits="userSpaceOnUse">
<stop stop-color="#695CFF"/>
<stop offset="1" stop-color="#857BFF"/>
</linearGradient>
<linearGradient id="paint1_linear_697_19" x1="47.9697" y1="29.5386" x2="47.9697" y2="66.5463" gradientUnits="userSpaceOnUse">
<stop stop-color="#695CFF"/>
<stop offset="1" stop-color="#857BFF"/>
</linearGradient>
<linearGradient id="paint2_linear_697_19" x1="47.9697" y1="29.5386" x2="47.9697" y2="66.5463" gradientUnits="userSpaceOnUse">
<stop stop-color="#695CFF"/>
<stop offset="1" stop-color="#857BFF"/>
</linearGradient>
<linearGradient id="paint3_linear_697_19" x1="47.9697" y1="29.5386" x2="47.9697" y2="66.5463" gradientUnits="userSpaceOnUse">
<stop stop-color="#695CFF"/>
<stop offset="1" stop-color="#857BFF"/>
</linearGradient>
</defs>
</svg>
