<svg width="390" height="390" viewBox="0 0 390 390" fill="none" xmlns="http://www.w3.org/2000/svg">
<path d="M184.262 136.088C214.457 163.228 244.409 190.193 274.411 217.102C282.374 224.244 290.985 230.389 301.763 232.531C314.489 235.06 326.131 232.7 336.363 224.429C337.332 223.645 338.336 222.898 339.38 222.219C339.675 222.027 340.166 222.136 340.943 222.079C342.13 225.737 341.847 229.452 341.151 233.066C337.161 253.774 321.892 267.219 300.543 269.812C280.702 272.222 264.095 265.102 249.04 253.272C231.81 239.732 216.146 224.383 199.798 209.826C181.676 193.688 163.734 177.349 145.546 161.286C133.726 150.847 119.99 146.905 104.382 150.409C103.712 150.559 103.009 150.642 102.325 150.619C101.949 150.606 101.582 150.308 101.188 150.129C100.389 147.547 102.154 145.852 103.329 144.066C120.016 118.71 150.573 112.585 175.717 129.564C178.6 131.511 181.27 133.775 184.262 136.088Z" fill="#5547FB"/>
<path d="M164.103 203.142C177.674 214.975 190.229 227.508 204.068 238.585C210.566 243.786 217.743 247.194 226.391 246.233C227.366 246.125 228.461 246.092 228.994 247.107C229.782 248.606 228.75 249.84 228.006 250.934C222.747 258.671 215.676 264.252 206.908 267.375C187.439 274.31 170.638 268.502 155.89 255.509C136.321 238.267 117.109 220.621 97.716 203.18C94.8126 200.568 91.6976 198.222 88.3914 196.109C81.077 191.434 73.299 189.803 64.818 192.081C63.3852 192.466 61.9127 193.304 60.525 192.015C59.9582 190.791 60.5293 189.773 61.0853 188.826C70.672 172.51 83.7858 161.68 103.777 162.201C113.953 162.466 122.579 167.133 130.353 173.283C142.067 182.549 152.636 193.133 164.103 203.142Z" fill="#5547FB"/>
<path d="M316.572 215.147C305.773 216.03 297.101 211.827 289.585 205.18C271.729 189.388 254.083 173.359 236.322 157.46C232.061 153.646 227.647 150.003 222.654 147.153C218.202 144.612 213.438 143.246 208.265 143.629C206.786 143.739 205.003 144.577 204.154 142.762C203.377 141.103 204.898 139.93 205.777 138.738C220.679 118.542 246.454 114.167 268.256 128.079C278.557 134.653 287.124 143.309 296.099 151.438C305.694 160.129 315.952 168.146 324.331 178.131C326.671 180.921 328.644 183.921 330.121 187.276C335.834 200.252 330.582 211.371 316.572 215.147Z" fill="#5547FB"/>
<path d="M60.1927 255.152C52.4361 246.615 47.6734 237.231 48.0175 225.605C48.4606 210.631 63.0939 202.324 75.9134 209.942C78.9281 211.733 81.4958 214.088 84.0847 216.417C98.7819 229.641 113.453 242.893 128.206 256.055C130.902 258.461 129.978 259.85 127.471 261.46C105.973 275.264 79.1298 272.845 60.1927 255.152Z" fill="#5547FB"/>
</svg>
